<?xml version="1.0" encoding="utf-8"?>
<!-- Uploaded to: SVG Repo, www.svgrepo.com, Generator: SVG Repo Mixer Tools -->
<svg fill="#000000" version="1.1" id="Layer_1" xmlns="http://www.w3.org/2000/svg" xmlns:xlink="http://www.w3.org/1999/xlink" 
	 width="800px" height="800px" viewBox="0 0 256 205" enable-background="new 0 0 256 205" xml:space="preserve">
<path d="M51.821,30.057c0-15.49,12.392-27.982,27.981-27.982c15.49,0,27.981,12.492,27.981,27.982
	c-0.1,15.59-12.592,27.981-27.981,27.981C64.313,58.038,51.821,45.547,51.821,30.057z M206.165,150.068h-50.771v-45.37
	c0-22.103-19.315-39.969-41.049-39.969H46.29c-23.861,0-44.301,20.676-44.29,41.049v83.178C1.972,198.175,8.483,202.988,14.963,203
	c6.496,0.012,12.963-4.802,12.963-14.043v-81.018h8.642v94.981h84.259v-94.981h8.642l0.088,54.411
	c-0.058,9.429,5.771,13.445,11.795,13.644h64.814C223.841,175.994,223.841,150.068,206.165,150.068z M249.287,32.14
	c0,18.522-6.339,35.503-16.776,45.58c10.437,10.079,16.776,27.062,16.776,45.581v3.717H254v11.367h-85.337v-11.367h4.714v-3.717
	c0-18.519,6.338-35.503,16.776-45.581c-10.438-10.077-16.776-27.061-16.776-45.58v-2.95h-4.714V17.823H254V29.19h-4.713V32.14z
	 M241.747,35.861h-60.831c0.865,16.49,7.42,31.486,17.188,38.894l3.912,2.965l-3.912,2.965c-9.77,7.409-16.323,22.406-17.188,38.895
	h60.834c-0.866-16.49-7.421-31.488-17.189-38.895l-3.914-2.965l3.914-2.965C234.328,67.347,240.884,52.351,241.747,35.861z
	 M200.768,70.686l4.012,2.25c0,0,5.644,7.402,5.644,24.666c0,0,0.049,0.097,0.132,0.241c-4.583,0.796-7.85,3.663-7.85,3.663
	c-6.868,5.209-12.285,9.728-12.617,16.043h44.651c-0.332-6.316-3.095-7.342-12.618-16.043c-2.699-2.465-5.423-3.529-7.943-3.798
	c0.006-0.808,0.193-19.136,3.704-24.15c1.697-1.701,2.968-2.25,2.968-2.25c7.422-5.624,12.401-17.013,13.054-29.534h-45.146
	C189.413,54.295,193.349,65.058,200.768,70.686z"/>
</svg>